<svg xmlns="http://www.w3.org/2000/svg" width="500pt" height="500pt" viewBox="0 0 68.266664 68.25658" preserveAspectRatio="xMinYMin meet" id="svg883"><defs id="defs887"><filter id="filter2265" x="-.059" width="1.119" y="-.061" height="1.122" color-interpolation-filters="sRGB"><feGaussianBlur stdDeviation="1.645" id="feGaussianBlur2267"/></filter></defs><g id="layer2" transform="translate(2.923 3.076)"><g transform="matrix(.91188 0 0 .91188 3.371 3.856)" id="shadow" fill="none" stroke="#fff" stroke-width="2.246" filter="url(#filter2265)"><path id="path2039" d="M30.782-2.522c-18.39 0-33.304 14.91-33.304 33.304 0 14.714 9.543 27.198 22.775 31.602 1.665.308 2.276-.723 2.276-1.603 0-.794-.031-3.417-.045-6.2-9.266 2.015-11.22-3.93-11.22-3.93-1.516-3.849-3.698-4.872-3.698-4.872-3.022-2.067.227-2.025.227-2.025 3.345.235 5.106 3.432 5.106 3.432 2.97 5.091 7.79 3.62 9.691 2.769.299-2.153 1.162-3.622 2.114-4.454-7.397-.842-15.173-3.698-15.173-16.459 0-3.636 1.301-6.607 3.432-8.939-.346-.839-1.486-4.226.322-8.813 0 0 2.797-.895 9.161 3.414 2.656-.739 5.506-1.108 8.336-1.121 2.83.013 5.681.382 8.343 1.12 6.357-4.308 9.15-3.413 9.15-3.413 1.812 4.587.672 7.974.326 8.813 2.135 2.332 3.427 5.303 3.427 8.94 0 12.79-7.79 15.607-15.207 16.432 1.195 1.033 2.26 3.06 2.26 6.167 0 4.456-.04 8.042-.04 9.14 0 .886.6 1.924 2.288 1.597 13.226-4.409 22.756-16.888 22.756-31.597 0-18.394-14.91-33.304-33.303-33.304" stroke-linecap="round" stroke-linejoin="round"/></g></g><g id="layer1" transform="translate(2.923 3.076)"><g id="g881" transform="matrix(.91188 0 0 .91188 3.371 3.856)" fill="none" stroke="#fff" stroke-width="2.246"><path d="M30.782-2.522c-18.39 0-33.304 14.91-33.304 33.304 0 14.714 9.543 27.198 22.775 31.602 1.665.308 2.276-.723 2.276-1.603 0-.794-.031-3.417-.045-6.2-9.266 2.015-11.22-3.93-11.22-3.93-1.516-3.849-3.698-4.872-3.698-4.872-3.022-2.067.227-2.025.227-2.025 3.345.235 5.106 3.432 5.106 3.432 2.97 5.091 7.79 3.62 9.691 2.769.299-2.153 1.162-3.622 2.114-4.454-7.397-.842-15.173-3.698-15.173-16.459 0-3.636 1.301-6.607 3.432-8.939-.346-.839-1.486-4.226.322-8.813 0 0 2.797-.895 9.161 3.414 2.656-.739 5.506-1.108 8.336-1.121 2.83.013 5.681.382 8.343 1.12 6.357-4.308 9.15-3.413 9.15-3.413 1.812 4.587.672 7.974.326 8.813 2.135 2.332 3.427 5.303 3.427 8.94 0 12.79-7.79 15.607-15.207 16.432 1.195 1.033 2.26 3.06 2.26 6.167 0 4.456-.04 8.042-.04 9.14 0 .886.6 1.924 2.288 1.597 13.226-4.409 22.756-16.888 22.756-31.597 0-18.394-14.91-33.304-33.303-33.304" id="body" stroke-linecap="round" stroke-linejoin="round"/></g></g></svg>