<svg xmlns="http://www.w3.org/2000/svg" width="719.245" height="123.446" viewBox="0 0 190.30021 32.661735" id="svg8"><defs id="defs2"><filter id="filter1083" color-interpolation-filters="sRGB"><feFlood flood-opacity="1" flood-color="#FFF" result="flood" id="feFlood1073"/><feComposite in="SourceGraphic" in2="flood" operator="in" result="composite1" id="feComposite1075"/><feGaussianBlur in="composite1" stdDeviation="10.4" result="blur" id="feGaussianBlur1077"/><feOffset result="offset" id="feOffset1079"/><feComposite in="offset" in2="SourceGraphic" operator="out" result="fbSourceGraphic" id="feComposite1081"/><feColorMatrix result="fbSourceGraphicAlpha" in="fbSourceGraphic" values="0 0 0 -1 0 0 0 0 -1 0 0 0 0 -1 0 0 0 0 1 0" id="feColorMatrix1085"/><feFlood id="feFlood1087" flood-opacity=".498" flood-color="#FFF" result="flood"/><feComposite in2="flood" id="feComposite1089" in="fbSourceGraphic" operator="in" result="composite1"/><feGaussianBlur id="feGaussianBlur1091" in="composite1" stdDeviation="10" result="blur"/><feOffset id="feOffset1093" result="offset"/><feComposite in2="offset" id="feComposite1095" in="fbSourceGraphic" result="fbSourceGraphic"/><feColorMatrix result="fbSourceGraphicAlpha" in="fbSourceGraphic" values="0 0 0 -1 0 0 0 0 -1 0 0 0 0 -1 0 0 0 0 1 0" id="feColorMatrix1097"/><feFlood id="feFlood1099" flood-opacity=".498" flood-color="#FFF" result="flood"/><feComposite in2="flood" id="feComposite1101" in="fbSourceGraphic" operator="in" result="composite1"/><feGaussianBlur id="feGaussianBlur1103" in="composite1" stdDeviation="10" result="blur"/><feOffset id="feOffset1105" result="offset"/><feComposite in2="offset" id="feComposite1107" in="fbSourceGraphic" result="fbSourceGraphic"/><feColorMatrix result="fbSourceGraphicAlpha" in="fbSourceGraphic" values="0 0 0 -1 0 0 0 0 -1 0 0 0 0 -1 0 0 0 0 1 0" id="feColorMatrix1145"/><feFlood id="feFlood1147" flood-opacity=".498" flood-color="#FFF" result="flood"/><feComposite in2="flood" id="feComposite1149" in="fbSourceGraphic" operator="in" result="composite1"/><feGaussianBlur id="feGaussianBlur1151" in="composite1" stdDeviation="1" result="blur"/><feOffset id="feOffset1153" result="offset"/><feComposite in2="offset" id="feComposite1155" in="fbSourceGraphic" result="composite2"/></filter><filter id="filter2203" x="-.02" width="1.041" y="-.149" height="1.297" color-interpolation-filters="sRGB"><feGaussianBlur stdDeviation="1.56" id="feGaussianBlur2205"/></filter></defs><g id="layer1" transform="translate(-14.095 -69.434)"><g id="shadow" fill="#fff" fill-opacity=".943" filter="url(#filter2203)"><text style="line-height:100%;-inkscape-font-specification:'Poiret One, Normal';font-variant-ligatures:normal;font-variant-caps:normal;font-variant-numeric:normal;font-feature-settings:normal;text-align:start" x="17.387" y="90.179" id="text2023" font-weight="400" font-size="22.578" font-family="Poiret One" letter-spacing="0" word-spacing="0" stroke-width=".265"><tspan id="tspan2021" x="17.387" y="90.179" style="-inkscape-font-specification:'Poiret One, Normal';font-variant-ligatures:normal;font-variant-caps:normal;font-variant-numeric:normal;font-feature-settings:normal;text-align:start">Justen</tspan></text><text style="line-height:100%;-inkscape-font-specification:'Poiret One, Normal';font-variant-ligatures:normal;font-variant-caps:normal;font-variant-numeric:normal;font-feature-settings:normal;text-align:start" x="110.369" y="90.247" id="text2027" font-weight="400" font-size="22.578" font-family="Poiret One" letter-spacing="0" word-spacing="0" stroke-width=".265"><tspan id="tspan2025" x="110.369" y="90.247" style="-inkscape-font-specification:'Poiret One, Normal';font-variant-ligatures:normal;font-variant-caps:normal;font-variant-numeric:normal;font-feature-settings:normal;text-align:start">Robertson</tspan></text><text style="line-height:100%;-inkscape-font-specification:'Fira Sans, Light';font-variant-ligatures:normal;font-variant-caps:normal;font-variant-numeric:normal;font-feature-settings:normal;text-align:start" x="48.003" y="97.051" id="text2031" font-weight="300" font-size="6.35" font-family="Fira Sans" letter-spacing="0" word-spacing="0" stroke-width=".265"><tspan id="tspan2029" x="48.003" y="97.051" style="-inkscape-font-specification:'Fira Sans, Light';font-variant-ligatures:normal;font-variant-caps:normal;font-variant-numeric:normal;font-feature-settings:normal;text-align:start">freelance</tspan></text><text style="line-height:100%;-inkscape-font-specification:'Fira Sans, Light';font-variant-ligatures:normal;font-variant-caps:normal;font-variant-numeric:normal;font-feature-settings:normal;text-align:start" x="111.352" y="97.051" id="text2035" font-weight="300" font-size="6.35" font-family="Fira Sans" letter-spacing="0" word-spacing="0" stroke-width=".265"><tspan id="tspan2033" x="111.352" y="97.051" style="-inkscape-font-specification:'Fira Sans, Light';font-variant-ligatures:normal;font-variant-caps:normal;font-variant-numeric:normal;font-feature-settings:normal;text-align:start">designer, programmer, et cetera</tspan></text><path d="M93.062 73.178c-6.943 0-12.572 5.582-12.572 12.467 0 6.885 5.629 12.467 12.572 12.467s12.572-5.582 12.572-12.467c0-6.885-5.629-12.467-12.572-12.467zm-3.589 1.889c1.254 4.378.966 13.015.336 20.064-.543-7.394.23-13.442-1.008-19.77.199.202.034-.566.164-.428.3.32.425-.156.508.134zm8.226.286c-1.875 8.48-1.09 18.45-1.048 20.639-1.306-3.336-2.954-5.729-6.209-7.3a8.895 8.895 0 0 1 5.59 4.54c-.81-4.823.047-14.373.769-17.961.174.118.088.512.4.154.325-.57.386-.359.498-.072zm-8.646 8.567c-.653.557-1.476 1.462-2.212 1.226-.736-.236-1.054-.827-1.88-1.062-.85-.187-1.526-.224-3.02.694 1.009-1.114 1.809-1.275 2.638-1.298.83-.023 1.562.993 2.398 1.21.835.216 1.45-.343 2.076-.77zm11.31.038c.252 1.592-.861 2.943-2.488 3.01.204 2.79 3.208 4.246 3.654 5.928-1.062-2.026-3.718-2.678-4.245-6.433 1.493.52 2.68-.923 2.61-2.086-.024-.95-.713-2.416-2.792-2.432 1.228-.49 3.01.42 3.262 2.013z" id="path2037" stroke-width=".314" stroke-linecap="round" stroke-linejoin="bevel" paint-order="markers stroke fill"/></g></g><g id="layer2" transform="translate(3.744 3.744)"><g transform="translate(-17.838 -73.178)" id="body" fill="#fff"><text id="text4506" y="90.179" x="17.387" style="line-height:100%;-inkscape-font-specification:'Poiret One, Normal';font-variant-ligatures:normal;font-variant-caps:normal;font-variant-numeric:normal;font-feature-settings:normal;text-align:start" font-weight="400" font-size="22.578" font-family="Poiret One" letter-spacing="0" word-spacing="0" stroke-width=".265"><tspan style="-inkscape-font-specification:'Poiret One, Normal';font-variant-ligatures:normal;font-variant-caps:normal;font-variant-numeric:normal;font-feature-settings:normal;text-align:start" y="90.179" x="17.387" id="tspan4504">Justen</tspan></text><text id="text4510" y="90.247" x="110.369" style="line-height:100%;-inkscape-font-specification:'Poiret One, Normal';font-variant-ligatures:normal;font-variant-caps:normal;font-variant-numeric:normal;font-feature-settings:normal;text-align:start" font-weight="400" font-size="22.578" font-family="Poiret One" letter-spacing="0" word-spacing="0" stroke-width=".265"><tspan style="-inkscape-font-specification:'Poiret One, Normal';font-variant-ligatures:normal;font-variant-caps:normal;font-variant-numeric:normal;font-feature-settings:normal;text-align:start" y="90.247" x="110.369" id="tspan4508">Robertson</tspan></text><text id="text4514" y="97.051" x="48.003" style="line-height:100%;-inkscape-font-specification:'Fira Sans, Light';font-variant-ligatures:normal;font-variant-caps:normal;font-variant-numeric:normal;font-feature-settings:normal;text-align:start" font-weight="300" font-size="6.35" font-family="Fira Sans" letter-spacing="0" word-spacing="0" stroke-width=".265"><tspan style="-inkscape-font-specification:'Fira Sans, Light';font-variant-ligatures:normal;font-variant-caps:normal;font-variant-numeric:normal;font-feature-settings:normal;text-align:start" y="97.051" x="48.003" id="tspan4512">freelance</tspan></text><text id="text4518" y="97.051" x="111.352" style="line-height:100%;-inkscape-font-specification:'Fira Sans, Light';font-variant-ligatures:normal;font-variant-caps:normal;font-variant-numeric:normal;font-feature-settings:normal;text-align:start" font-weight="300" font-size="6.35" font-family="Fira Sans" letter-spacing="0" word-spacing="0" stroke-width=".265"><tspan style="-inkscape-font-specification:'Fira Sans, Light';font-variant-ligatures:normal;font-variant-caps:normal;font-variant-numeric:normal;font-feature-settings:normal;text-align:start" y="97.051" x="111.352" id="tspan4516">designer, programmer, et cetera</tspan></text><path id="path838" d="M93.062 73.178c-6.943 0-12.572 5.582-12.572 12.467 0 6.885 5.629 12.467 12.572 12.467s12.572-5.582 12.572-12.467c0-6.885-5.629-12.467-12.572-12.467zm-3.589 1.889c1.254 4.378.966 13.015.336 20.064-.543-7.394.23-13.442-1.008-19.77.199.202.034-.566.164-.428.3.32.425-.156.508.134zm8.226.286c-1.875 8.48-1.09 18.45-1.048 20.639-1.306-3.336-2.954-5.729-6.209-7.3a8.895 8.895 0 0 1 5.59 4.54c-.81-4.823.047-14.373.769-17.961.174.118.088.512.4.154.325-.57.386-.359.498-.072zm-8.646 8.567c-.653.557-1.476 1.462-2.212 1.226-.736-.236-1.054-.827-1.88-1.062-.85-.187-1.526-.224-3.02.694 1.009-1.114 1.809-1.275 2.638-1.298.83-.023 1.562.993 2.398 1.21.835.216 1.45-.343 2.076-.77zm11.31.038c.252 1.592-.861 2.943-2.488 3.01.204 2.79 3.208 4.246 3.654 5.928-1.062-2.026-3.718-2.678-4.245-6.433 1.493.52 2.68-.923 2.61-2.086-.024-.95-.713-2.416-2.792-2.432 1.228-.49 3.01.42 3.262 2.013z" stroke-width=".314" stroke-linecap="round" stroke-linejoin="bevel" paint-order="markers stroke fill"/></g></g></svg>