<svg xmlns="http://www.w3.org/2000/svg" width="500pt" height="500pt" viewBox="0 0 136.53333 136.60414" preserveAspectRatio="xMidYMid" id="svg4"><defs id="defs8"><filter id="filter2902" x="-.061" width="1.122" y="-.059" height="1.118" color-interpolation-filters="sRGB"><feGaussianBlur stdDeviation="3.485" id="feGaussianBlur2904"/></filter></defs><g id="layer1" transform="translate(8.325 8.09)"><path id="shadow" d="M72.899 110.5c-4.91-9.664-10.67-19.425-21.906-19.425-2.148 0-4.293.355-6.262 1.254l-3.817-7.64c4.651-3.99 12.168-7.154 21.829-7.154 15.03 0 22.743 7.24 28.867 16.481 3.635-7.89 5.363-18.545 5.363-31.752 0-32.98-10.314-49.915-34.407-49.915-23.741 0-33.999 16.935-33.999 49.915 0 32.807 10.258 49.567 34 49.567 3.773 0 7.19-.415 10.332-1.331zm5.885 11.51c-5.204 1.395-10.734 2.165-16.218 2.165C30.953 124.175 0 98.95 0 62.265 0 25.23 30.953 0 62.566 0c32.144 0 62.8 25.05 62.8 62.264 0 20.7-9.66 37.522-23.698 48.395 4.536 6.796 9.206 11.31 15.708 11.31 7.096 0 9.958-5.484 10.437-9.785h9.242c.54 5.727-2.325 29.527-28.153 29.527-15.644 0-23.915-9.067-30.118-19.701z" transform="matrix(.8598 0 0 .8598 1.1 -.52)" fill="none" stroke="#fff" stroke-width="4.766" stroke-linecap="round" filter="url(#filter2902)"/></g><g id="layer2" transform="translate(8.325 8.09)"><path d="M63.779 94.488c-4.222-8.31-9.174-16.702-18.835-16.702-1.847 0-3.69.305-5.384 1.078l-3.282-6.568c4-3.431 10.462-6.151 18.769-6.151 12.923 0 19.554 6.225 24.82 14.17 3.125-6.784 4.61-15.945 4.61-27.3 0-28.356-8.867-42.917-29.582-42.917-20.413 0-29.232 14.56-29.232 42.917 0 28.207 8.82 42.617 29.233 42.617 3.244 0 6.181-.357 8.883-1.144zm5.06 9.896c-4.475 1.2-9.23 1.861-13.944 1.861-27.18 0-53.794-21.688-53.794-53.23C1.1 21.174 27.714-.518 54.895-.518c27.637 0 53.995 21.537 53.995 53.534 0 17.797-8.306 32.26-20.376 41.61 3.9 5.843 7.916 9.724 13.506 9.724 6.101 0 8.562-4.715 8.974-8.413h7.946c.464 4.924-2 25.387-24.206 25.387-13.45 0-20.562-7.796-25.895-16.94z" id="body" fill="none" stroke="#fff" stroke-width="4.098" stroke-linecap="round" stroke-linejoin="round"/></g></svg>