<svg xmlns="http://www.w3.org/2000/svg" width="648.618" height="668.009" viewBox="0 0 132.83706 136.87927" preserveAspectRatio="xMidYMid" id="svg4"><defs id="defs8"><filter id="filter2902" x="-.061" width="1.122" y="-.059" height="1.118" color-interpolation-filters="sRGB"><feGaussianBlur stdDeviation="3.485" id="feGaussianBlur2904"/></filter></defs><g id="layer1" transform="translate(8.325 8.365)"><path id="shadow" d="M72.899 110.5c-4.91-9.664-10.67-19.425-21.906-19.425-2.148 0-4.293.355-6.262 1.254l-3.817-7.64c4.651-3.99 12.168-7.154 21.829-7.154 15.03 0 22.743 7.24 28.867 16.481 3.635-7.89 5.363-18.545 5.363-31.752 0-32.98-10.314-49.915-34.407-49.915-23.741 0-33.999 16.935-33.999 49.915 0 32.807 10.258 49.567 34 49.567 3.773 0 7.19-.415 10.332-1.331zm5.885 11.51c-5.204 1.395-10.734 2.165-16.218 2.165C30.953 124.175 0 98.95 0 62.265 0 25.23 30.953 0 62.566 0c32.144 0 62.8 25.05 62.8 62.264 0 20.7-9.66 37.522-23.698 48.395 4.536 6.796 9.206 11.31 15.708 11.31 7.096 0 9.958-5.484 10.437-9.785h9.242c.54 5.727-2.325 29.527-28.153 29.527-15.644 0-23.915-9.067-30.118-19.701z" transform="matrix(.86392 0 0 .86392 -1.138 -1.138)" fill="none" stroke="#fff" stroke-width="4.744" filter="url(#filter2902)" stroke-linecap="round"/></g><g id="layer2" transform="translate(8.325 8.365)"><path d="M61.84 94.324c-4.241-8.348-9.218-16.781-18.925-16.781-1.855 0-3.708.307-5.41 1.083l-3.297-6.6c4.018-3.447 10.512-6.18 18.858-6.18 12.985 0 19.648 6.254 24.94 14.238 3.14-6.817 4.632-16.022 4.632-27.431 0-28.492-8.91-43.123-29.724-43.123-20.51 0-29.373 14.63-29.373 43.123 0 28.342 8.862 42.821 29.373 42.821 3.26 0 6.212-.358 8.926-1.15zm5.085 9.944c-4.496 1.205-9.274 1.87-14.011 1.87-27.311 0-54.052-21.792-54.052-53.485 0-31.995 26.74-53.791 54.052-53.791 27.77 0 54.253 21.64 54.253 53.79 0 17.884-8.345 32.416-20.473 41.81 3.92 5.871 7.954 9.77 13.57 9.77 6.131 0 8.604-4.737 9.017-8.453h7.985c.466 4.948-2.009 25.51-24.322 25.51-13.515 0-20.66-7.834-26.02-17.02z" id="body" fill="none" stroke="#fff" stroke-width="4.098" stroke-linecap="round" stroke-linejoin="round"/></g></svg>