<?xml version="1.0" encoding="UTF-8" standalone="no"?>
<svg
   xmlns:dc="http://purl.org/dc/elements/1.1/"
   xmlns:cc="http://creativecommons.org/ns#"
   xmlns:rdf="http://www.w3.org/1999/02/22-rdf-syntax-ns#"
   xmlns:svg="http://www.w3.org/2000/svg"
   xmlns="http://www.w3.org/2000/svg"
   xmlns:sodipodi="http://sodipodi.sourceforge.net/DTD/sodipodi-0.dtd"
   xmlns:inkscape="http://www.inkscape.org/namespaces/inkscape"
   width="680.18719"
   height="665.17566"
   viewBox="0 0 69.651168 68.103923"
   preserveAspectRatio="xMinYMin meet"
   version="1.1"
   id="svg883"
   sodipodi:docname="github.svg"
   inkscape:version="0.92.2 5c3e80d, 2017-08-06">
  <metadata
     id="metadata889">
    <rdf:RDF>
      <cc:Work
         rdf:about="">
        <dc:format>image/svg+xml</dc:format>
        <dc:type
           rdf:resource="http://purl.org/dc/dcmitype/StillImage" />
        <dc:title></dc:title>
      </cc:Work>
    </rdf:RDF>
  </metadata>
  <defs
     id="defs887">
    <filter
       inkscape:collect="always"
       style="color-interpolation-filters:sRGB"
       id="filter2265"
       x="-0.059259441"
       width="1.1185189"
       y="-0.060759302"
       height="1.1215186">
      <feGaussianBlur
         inkscape:collect="always"
         stdDeviation="1.6446238"
         id="feGaussianBlur2267" />
    </filter>
  </defs>
  <sodipodi:namedview
     pagecolor="#ffffff"
     bordercolor="#666666"
     borderopacity="1"
     objecttolerance="10"
     gridtolerance="10"
     guidetolerance="10"
     inkscape:pageopacity="0"
     inkscape:pageshadow="2"
     inkscape:window-width="1920"
     inkscape:window-height="1015"
     id="namedview885"
     showgrid="false"
     inkscape:pagecheckerboard="true"
     inkscape:zoom="0.54893816"
     inkscape:cx="251.12229"
     inkscape:cy="310.0346"
     inkscape:window-x="0"
     inkscape:window-y="33"
     inkscape:window-maximized="1"
     inkscape:current-layer="layer2" />
  <g
     inkscape:groupmode="layer"
     id="layer2"
     inkscape:label="Layer 2"
     style="display:inline"
     transform="translate(2.9230971,2.9229945)"
     sodipodi:insensitive="true">
    <g
       transform="matrix(0.93489921,0,0,0.93489921,3.1246585,3.1249966)"
       style="fill:none;stroke:#ffffff;stroke-width:2.19061041;stroke-miterlimit:4;stroke-dasharray:none;stroke-opacity:1;filter:url(#filter2265)"
       id="shadow">
      <path
         inkscape:connector-curvature="0"
         style="fill:none;stroke:#ffffff;stroke-width:2.19061041;stroke-linecap:round;stroke-linejoin:round;stroke-miterlimit:4;stroke-dasharray:none;stroke-opacity:1"
         id="path2039"
         d="m 30.781875,-2.5220401 c -18.390737,0 -33.303663,14.9103141 -33.303663,33.3036621 0,14.714679 9.5424965,27.198231 22.775155,31.601978 1.664335,0.30821 2.275531,-0.722465 2.275531,-1.60217 0,-0.794033 -0.03108,-3.417736 -0.04519,-6.200507 -9.265366,2.014597 -11.22041,-3.929417 -11.22041,-3.929417 -1.5149306,-3.849491 -3.6977368,-4.872853 -3.6977368,-4.872853 -3.0215033,-2.067097 0.227762,-2.024783 0.227762,-2.024783 3.3443398,0.235075 5.1053168,3.432102 5.1053168,3.432102 2.970309,5.091473 7.790923,3.619378 9.691377,2.768666 0.298807,-2.152769 1.162057,-3.621729 2.114373,-4.453374 C 17.307349,44.65891 9.5310532,41.803266 9.5310532,29.042325 c 0,-3.635833 1.3010118,-6.606926 3.4315798,-8.939136 -0.345823,-0.838958 -1.485677,-4.226134 0.322575,-8.813501 0,0 2.796615,-0.895115 9.160891,3.413818 2.656353,-0.738137 5.505467,-1.107989 8.335776,-1.120526 2.830308,0.01254 5.681512,0.382389 8.343089,1.120526 6.356701,-4.308933 9.149398,-3.413818 9.149398,-3.413818 1.812693,4.587367 0.672316,7.974543 0.326494,8.813501 2.135268,2.33221 3.4274,5.303041 3.4274,8.939136 0,12.79124 -7.790923,15.607966 -15.20677,16.432297 1.194444,1.033549 2.258814,3.060421 2.258814,6.167335 0,4.455986 -0.03866,8.042454 -0.03866,9.139473 0,0.886235 0.599442,1.924746 2.287806,1.59773 13.225346,-4.40871 22.755827,-16.887821 22.755827,-31.597538 0,-18.393348 -14.910836,-33.3036621 -33.303401,-33.3036621" />
    </g>
  </g>
  <g
     inkscape:groupmode="layer"
     id="layer1"
     inkscape:label="Layer 1"
     style="display:inline"
     transform="translate(2.9230971,2.9229945)"
     sodipodi:insensitive="true">
    <g
       id="g881"
       style="fill:none;stroke:#ffffff;stroke-width:5.46133327;stroke-miterlimit:4;stroke-dasharray:none;stroke-opacity:1"
       transform="matrix(0.93489921,0,0,0.93489921,3.1246585,3.1249966)"
       inkscape:label="#body">
      <path
         d="m 30.781875,-2.5220401 c -18.390737,0 -33.303663,14.9103141 -33.303663,33.3036621 0,14.714679 9.5424965,27.198231 22.775155,31.601978 1.664335,0.30821 2.275531,-0.722465 2.275531,-1.60217 0,-0.794033 -0.03108,-3.417736 -0.04519,-6.200507 -9.265366,2.014597 -11.22041,-3.929417 -11.22041,-3.929417 -1.5149306,-3.849491 -3.6977368,-4.872853 -3.6977368,-4.872853 -3.0215033,-2.067097 0.227762,-2.024783 0.227762,-2.024783 3.3443398,0.235075 5.1053168,3.432102 5.1053168,3.432102 2.970309,5.091473 7.790923,3.619378 9.691377,2.768666 0.298807,-2.152769 1.162057,-3.621729 2.114373,-4.453374 C 17.307349,44.65891 9.5310532,41.803266 9.5310532,29.042325 c 0,-3.635833 1.3010118,-6.606926 3.4315798,-8.939136 -0.345823,-0.838958 -1.485677,-4.226134 0.322575,-8.813501 0,0 2.796615,-0.895115 9.160891,3.413818 2.656353,-0.738137 5.505467,-1.107989 8.335776,-1.120526 2.830308,0.01254 5.681512,0.382389 8.343089,1.120526 6.356701,-4.308933 9.149398,-3.413818 9.149398,-3.413818 1.812693,4.587367 0.672316,7.974543 0.326494,8.813501 2.135268,2.33221 3.4274,5.303041 3.4274,8.939136 0,12.79124 -7.790923,15.607966 -15.20677,16.432297 1.194444,1.033549 2.258814,3.060421 2.258814,6.167335 0,4.455986 -0.03866,8.042454 -0.03866,9.139473 0,0.886235 0.599442,1.924746 2.287806,1.59773 13.225346,-4.40871 22.755827,-16.887821 22.755827,-31.597538 0,-18.393348 -14.910836,-33.3036621 -33.303401,-33.3036621"
         id="body"
         style="fill:none;stroke:#ffffff;stroke-width:2.0480001;stroke-linecap:round;stroke-linejoin:round;stroke-miterlimit:4;stroke-dasharray:none;stroke-opacity:1"
         inkscape:connector-curvature="0" />
    </g>
  </g>
</svg>
